<?xml version="1.0" encoding="UTF-8" standalone="no"?>
<!-- Created with Inkscape (http://www.inkscape.org/) -->

<svg
   width="91mm"
   height="89mm"
   viewBox="0 0 90.999999 88.999999"
   version="1.1"
   id="svg1"
   xml:space="preserve"
   inkscape:version="1.4 (86a8ad7, 2024-10-11)"
   sodipodi:docname="hamh-logo.svg"
   inkscape:export-filename="dibujo.png"
   inkscape:export-xdpi="96"
   inkscape:export-ydpi="96"
   xmlns:inkscape="http://www.inkscape.org/namespaces/inkscape"
   xmlns:sodipodi="http://sodipodi.sourceforge.net/DTD/sodipodi-0.dtd"
   xmlns="http://www.w3.org/2000/svg"
   xmlns:svg="http://www.w3.org/2000/svg"><sodipodi:namedview
     id="namedview1"
     pagecolor="#ffffff"
     bordercolor="#000000"
     borderopacity="0.25"
     inkscape:showpageshadow="2"
     inkscape:pageopacity="0.0"
     inkscape:pagecheckerboard="0"
     inkscape:deskcolor="#d1d1d1"
     inkscape:document-units="mm"
     inkscape:zoom="1.4142136"
     inkscape:cx="166.8772"
     inkscape:cy="116.31906"
     inkscape:window-width="1718"
     inkscape:window-height="1341"
     inkscape:window-x="4104"
     inkscape:window-y="0"
     inkscape:window-maximized="0"
     inkscape:current-layer="svg1"
     labelstyle="default" /><defs
     id="defs1" /><g
     inkscape:label="Capa 1"
     inkscape:groupmode="layer"
     id="layer1"
     style="display:inline"><path
       style="display:inline;fill:#18bcf2;fill-opacity:1;stroke-width:0.266194"
       d="m 49.149143,1.473171 38.513568,38.536435 c 0,0 1.248354,1.186052 2.207681,3.092371 0.959329,1.906323 1.10864,4.600698 1.10864,4.600698 v 36.786372 c 0,0 -0.01549,1.748506 -1.49842,3.050572 -1.482931,1.302064 -3.333077,1.362947 -3.333077,1.362947 l -81.325658,7.7e-5 c 0,0 -1.7523855,-0.0091 -3.17112,-1.352526 C -0.07808495,85.913164 0.05953025,84.487808 0.05953025,84.487808 V 47.704546 c 0,0 -0.0018381,-2.218618 0.95921785,-4.315832 0.9610554,-2.097209 2.3010618,-3.355005 2.3010618,-3.355005 L 41.545959,1.4719546 c 0,0 1.465224,-1.46837077 3.753488,-1.46837077 2.288268,0 3.849696,1.46958717 3.849696,1.46958717 z"
       id="path3"
       sodipodi:nodetypes="cczcczccscczcczc"
       inkscape:label="path3" /><path
       class="st0"
       d="m 31.689717,32.051124 c 2.813363,2.331095 6.157331,3.89845 9.721813,4.556421 V 17.180647 l 3.873694,-2.282955 3.870527,2.282955 V 36.60772 c 3.565364,-0.658847 6.910387,-2.226204 9.725159,-4.556417 l 7.032345,4.154609 c -11.437354,11.557779 -29.852321,11.557779 -41.290025,0 z m 8.546732,49.60988 C 44.314996,65.760441 35.09933,49.470196 19.574984,45.139543 v 8.312381 c 3.383916,1.32244 6.386113,3.496288 8.728705,6.320026 L 11.83076,69.485301 v 4.56907 l 3.873697,2.270836 16.469936,-9.713534 c 1.224356,3.48294 1.56683,7.225375 0.996449,10.879778 z M 70.977694,45.139543 c -15.515726,4.34014 -24.72189,20.626696 -20.643519,36.521461 l 7.047658,-4.15742 c -0.569325,-3.654411 -0.2265,-7.3965 0.996449,-10.87979 l 16.457611,9.701233 3.870711,-2.283125 v -4.55677 L 62.233673,59.77195 c 2.342772,-2.822684 5.34497,-4.996533 8.728708,-6.320026 z"
       id="path1"
       style="fill:#ffffff;fill-opacity:1;stroke-width:0.175841"
       inkscape:label="path1" /></g><style
     type="text/css"
     id="style1">
	.st0{fill:#54A446;}
</style></svg>
